<svg width="600" height="400" viewBox="0 0 600 400" fill="none" xmlns="http://www.w3.org/2000/svg">
  <rect width="600" height="400" fill="#F8FAFC" rx="12"/>
  <rect x="20" y="20" width="110" height="360" fill="#FFFFFF" stroke="#E2E8F0" rx="8"/>
  <rect x="35" y="40" width="80" height="12" fill="#2563EB" rx="4"/>
  <rect x="35" y="70" width="80" height="8" fill="#94A3B8" rx="2"/>
  <rect x="35" y="90" width="80" height="8" fill="#94A3B8" rx="2"/>
  <rect x="35" y="110" width="80" height="8" fill="#94A3B8" rx="2"/>

  <rect x="150" y="20" width="430" height="70" fill="#FFFFFF" stroke="#E2E8F0" rx="8"/>
  <text x="170" y="50" font-family="system-ui, sans-serif" font-weight="700" font-size="16" fill="#0F172A">Dashboard</text>

  <rect x="150" y="105" width="130" height="80" fill="#FFFFFF" stroke="#E2E8F0" rx="8"/>
  <text x="165" y="130" font-family="system-ui, sans-serif" font-size="11" fill="#64748B">Total Employees</text>
  <text x="165" y="165" font-family="system-ui, sans-serif" font-weight="800" font-size="22" fill="#2563EB">120</text>

  <rect x="300" y="105" width="130" height="80" fill="#FFFFFF" stroke="#E2E8F0" rx="8"/>
  <text x="315" y="130" font-family="system-ui, sans-serif" font-size="11" fill="#64748B">Present Today</text>
  <text x="315" y="165" font-family="system-ui, sans-serif" font-weight="800" font-size="22" fill="#16A34A">98</text>

  <rect x="450" y="105" width="130" height="80" fill="#FFFFFF" stroke="#E2E8F0" rx="8"/>
  <text x="465" y="130" font-family="system-ui, sans-serif" font-size="11" fill="#64748B">Absent</text>
  <text x="465" y="165" font-family="system-ui, sans-serif" font-weight="800" font-size="22" fill="#DC2626">22</text>

  <rect x="150" y="200" width="430" height="180" fill="#FFFFFF" stroke="#E2E8F0" rx="8"/>
  <text x="170" y="230" font-family="system-ui, sans-serif" font-weight="700" font-size="14" fill="#0F172A">Today's Attendance Stream</text>
  <circle cx="480" cy="290" r="45" stroke="#E2E8F0" stroke-width="10" fill="none"/>
  <circle cx="480" cy="290" r="45" stroke="#2563EB" stroke-width="10" stroke-dasharray="282" stroke-dashoffset="50" fill="none"/>
  <text x="480" y="295" font-family="system-ui, sans-serif" font-weight="800" font-size="16" fill="#0F172A" text-anchor="middle">98%</text>
</svg>
