<svg width="600" height="400" viewBox="0 0 600 400" fill="none" xmlns="http://www.w3.org/2000/svg">
  <rect width="600" height="400" fill="#1C1308" rx="14"/>
  <rect x="24" y="24" width="552" height="40" rx="8" fill="#2E1F0C"/>
  <circle cx="48" cy="44" r="8" fill="#F97316"/>
  <text x="68" y="49" font-family="system-ui, sans-serif" font-weight="700" font-size="14" fill="#FFFFFF">भारतीय मानवाधिकार परिवार</text>
  <rect x="440" y="32" width="120" height="24" rx="4" fill="#EA580C"/>
  <text x="452" y="48" font-family="system-ui, sans-serif" font-weight="600" font-size="11" fill="#FFFFFF">Human Rights</text>

  <rect x="34" y="86" width="532" height="130" rx="10" fill="#2E1F0C" stroke="#4D3418"/>
  <text x="54" y="120" font-family="system-ui, sans-serif" font-weight="800" font-size="16" fill="#FDBA74">मानव गरिमा, समानता और न्याय</text>
  <text x="54" y="145" font-family="system-ui, sans-serif" font-size="12" fill="#D4D4D8">Dedicated portal for human rights awareness campaigns, Hindi monthly magazine, and membership registration.</text>
  <rect x="54" y="165" width="140" height="32" rx="6" fill="#F97316"/>
  <text x="74" y="185" font-family="system-ui, sans-serif" font-weight="700" font-size="11" fill="#FFFFFF">Join Movement →</text>

  <rect x="34" y="234" width="168" height="130" rx="10" fill="#2E1F0C" stroke="#4D3418"/>
  <text x="48" y="265" font-family="system-ui, sans-serif" font-weight="700" font-size="13" fill="#FFFFFF">Monthly Magazine</text>
  <text x="48" y="290" font-family="system-ui, sans-serif" font-size="11" fill="#A1A1AA">Digital downloads of Hindi publications.</text>

  <rect x="216" y="234" width="168" height="130" rx="10" fill="#2E1F0C" stroke="#4D3418"/>
  <text x="230" y="265" font-family="system-ui, sans-serif" font-weight="700" font-size="13" fill="#FFFFFF">Membership Card</text>
  <text x="230" y="290" font-family="system-ui, sans-serif" font-size="11" fill="#A1A1AA">Online membership &amp; verified ID cards.</text>

  <rect x="398" y="234" width="168" height="130" rx="10" fill="#2E1F0C" stroke="#4D3418"/>
  <text x="412" y="265" font-family="system-ui, sans-serif" font-weight="700" font-size="13" fill="#FFFFFF">Social Campaigns</text>
  <text x="412" y="290" font-family="system-ui, sans-serif" font-size="11" fill="#A1A1AA">Community aid &amp; human rights legal assistance.</text>
</svg>
