<svg width="24" height="24" viewBox="0 0 24 24" fill="none" xmlns="http://www.w3.org/2000/svg">
  <rect width="24" height="24" rx="5" fill="#7952B3"/>
  <path d="M7 6h5.5c1.4 0 2.5.5 3.2 1.3.7.8 1 1.8 1 3 0 1-.3 1.8-.8 2.4-.5.6-1.2 1-2.1 1.2v.1c1.1.2 1.9.7 2.5 1.4.6.7.9 1.6.9 2.8 0 1.3-.4 2.4-1.3 3.2-.9.8-2.1 1.2-3.7 1.2H7V6zm3 6h2.4c.7 0 1.2-.2 1.6-.6.4-.4.6-.9.6-1.5 0-.6-.2-1.1-.6-1.4-.4-.3-1-.5-1.6-.5H10v4zm0 8.4h2.7c.8 0 1.4-.2 1.8-.6.4-.4.7-1 .7-1.7 0-.7-.2-1.3-.7-1.7-.4-.4-1.1-.6-1.9-.6H10v4.6z" fill="#FFFFFF"/>
</svg>
