<svg width="600" height="400" viewBox="0 0 600 400" fill="none" xmlns="http://www.w3.org/2000/svg">
  <rect width="600" height="400" fill="#0F172A" rx="14"/>
  <rect x="24" y="24" width="552" height="40" rx="8" fill="#1E293B"/>
  <circle cx="48" cy="44" r="8" fill="#F59E0B"/>
  <text x="68" y="49" font-family="system-ui, sans-serif" font-weight="700" font-size="14" fill="#FFFFFF">Tushar Tours &amp; Travels</text>
  <rect x="450" y="32" width="110" height="24" rx="4" fill="#D97706"/>
  <text x="466" y="48" font-family="system-ui, sans-serif" font-weight="600" font-size="11" fill="#FFFFFF">Book Tickets</text>

  <rect x="34" y="86" width="532" height="130" rx="10" fill="#1E293B" stroke="#334155"/>
  <text x="54" y="120" font-family="system-ui, sans-serif" font-weight="800" font-size="16" fill="#FBBF24">Intercity Bus Ticketing &amp; Reservation</text>
  <text x="54" y="145" font-family="system-ui, sans-serif" font-size="12" fill="#94A3B8">Luxury AC sleeper booking connecting Delhi, Lucknow, Jaipur, Mumbai with live seat tracking.</text>
  <rect x="54" y="165" width="140" height="32" rx="6" fill="#F59E0B"/>
  <text x="74" y="185" font-family="system-ui, sans-serif" font-weight="700" font-size="11" fill="#0F172A">Search Buses →</text>

  <rect x="34" y="234" width="168" height="130" rx="10" fill="#1E293B" stroke="#334155"/>
  <text x="48" y="265" font-family="system-ui, sans-serif" font-weight="700" font-size="13" fill="#FFFFFF">Seat Selection</text>
  <text x="48" y="290" font-family="system-ui, sans-serif" font-size="11" fill="#94A3B8">Interactive 2D upper &amp; lower deck selection.</text>

  <rect x="216" y="234" width="168" height="130" rx="10" fill="#1E293B" stroke="#334155"/>
  <text x="230" y="265" font-family="system-ui, sans-serif" font-weight="700" font-size="13" fill="#FFFFFF">GPS Tracking</text>
  <text x="230" y="290" font-family="system-ui, sans-serif" font-size="11" fill="#94A3B8">Live bus location and boarding updates.</text>

  <rect x="398" y="234" width="168" height="130" rx="10" fill="#1E293B" stroke="#334155"/>
  <text x="412" y="265" font-family="system-ui, sans-serif" font-weight="700" font-size="13" fill="#FFFFFF">Instant Refund</text>
  <text x="412" y="290" font-family="system-ui, sans-serif" font-size="11" fill="#94A3B8">Secure payment and automated cancellations.</text>
</svg>
